<svg xmlns="http://www.w3.org/2000/svg" width="230" height="120" viewBox="0 0 230 120" fill="none">
  <path d="M115 120C178.513 120 230 116.963 230 113.216C230 109.469 178.513 106.432 115 106.432C51.4872 106.432 0 109.469 0 113.216C0 116.963 51.4872 120 115 120Z" fill="#E6E6E6"/>
  <path d="M60.5047 27.0353C60.1531 27.012 59.8234 26.8545 59.5825 26.5946C59.3416 26.3347 59.2075 25.992 59.2075 25.6359C59.2075 25.2799 59.3416 24.9371 59.5825 24.6772C59.8234 24.4173 60.1531 24.2598 60.5047 24.2365C63.8974 24.2365 66.7562 19.3282 66.7562 13.5149C66.7792 13.1596 66.9352 12.8264 67.1924 12.583C67.4496 12.3396 67.7888 12.2041 68.1412 12.2041C68.4935 12.2041 68.8328 12.3396 69.0899 12.583C69.3471 12.8264 69.5031 13.1596 69.5261 13.5149C69.5261 21.0961 65.5759 27.0353 60.5047 27.0353Z" fill="#807ACC"/>
  <path d="M81.4359 27.0353C81.0843 27.012 80.7546 26.8545 80.5137 26.5946C80.2728 26.3347 80.1387 25.992 80.1387 25.6359C80.1387 25.2799 80.2728 24.9371 80.5137 24.6772C80.7546 24.4173 81.0843 24.2598 81.4359 24.2365C84.8286 24.2365 87.6874 19.3282 87.6874 13.5149C87.7104 13.1596 87.8664 12.8264 88.1235 12.583C88.3807 12.3396 88.7199 12.2041 89.0723 12.2041C89.4247 12.2041 89.7639 12.3396 90.0211 12.583C90.2783 12.8264 90.4342 13.1596 90.4573 13.5149C90.4869 21.0961 86.4952 27.0353 81.4359 27.0353Z" fill="#807ACC"/>
  <path d="M102.349 27.035C101.998 27.0117 101.668 26.8542 101.427 26.5943C101.186 26.3344 101.052 25.9917 101.052 25.6356C101.052 25.2795 101.186 24.9368 101.427 24.6769C101.668 24.417 101.998 24.2595 102.349 24.2362C105.736 24.2362 108.601 19.3279 108.601 13.5146C108.601 13.1442 108.747 12.789 109.006 12.5272C109.265 12.2653 109.616 12.1182 109.983 12.1182C110.349 12.1182 110.701 12.2653 110.96 12.5272C111.219 12.789 111.365 13.1442 111.365 13.5146C111.383 21.0958 107.427 27.035 102.349 27.035Z" fill="#807ACC"/>
  <path d="M123.298 27.035C123.109 27.0475 122.919 27.0206 122.74 26.956C122.561 26.8913 122.398 26.7903 122.259 26.6591C122.12 26.528 122.01 26.3695 121.934 26.1934C121.859 26.0173 121.82 25.8275 121.82 25.6356C121.82 25.4437 121.859 25.2539 121.934 25.0778C122.01 24.9018 122.12 24.7433 122.259 24.6121C122.398 24.4809 122.561 24.3799 122.74 24.3152C122.919 24.2506 123.109 24.2237 123.298 24.2362C126.685 24.2362 129.55 19.3279 129.55 13.5146C129.55 13.1442 129.695 12.789 129.955 12.5272C130.214 12.2653 130.565 12.1182 130.932 12.1182C131.298 12.1182 131.65 12.2653 131.909 12.5272C132.168 12.789 132.314 13.1442 132.314 13.5146C132.314 21.0958 128.352 27.035 123.298 27.035Z" fill="#807ACC"/>
  <path d="M144.224 27.0353C143.872 27.012 143.542 26.8545 143.301 26.5946C143.061 26.3347 142.926 25.992 142.926 25.6359C142.926 25.2799 143.061 24.9371 143.301 24.6772C143.542 24.4173 143.872 24.2598 144.224 24.2365C147.616 24.2365 150.475 19.3282 150.475 13.5149C150.498 13.1596 150.654 12.8264 150.911 12.583C151.168 12.3396 151.508 12.2041 151.86 12.2041C152.212 12.2041 152.552 12.3396 152.809 12.583C153.066 12.8264 153.222 13.1596 153.245 13.5149C153.245 21.0961 149.283 27.0353 144.224 27.0353Z" fill="#807ACC"/>
  <path d="M165.155 27.0353C164.803 27.012 164.473 26.8545 164.233 26.5946C163.992 26.3347 163.858 25.992 163.858 25.6359C163.858 25.2799 163.992 24.9371 164.233 24.6772C164.473 24.4173 164.803 24.2598 165.155 24.2365C168.542 24.2365 171.406 19.3282 171.406 13.5149C171.429 13.1596 171.585 12.8264 171.842 12.583C172.1 12.3396 172.439 12.2041 172.791 12.2041C173.144 12.2041 173.483 12.3396 173.74 12.583C173.997 12.8264 174.153 13.1596 174.176 13.5149C174.176 21.0961 170.214 27.0353 165.155 27.0353Z" fill="#807ACC"/>
  <g opacity="0.3">
    <path d="M60.5047 27.0353C60.153 27.012 59.8233 26.8545 59.5824 26.5946C59.3415 26.3347 59.2075 25.992 59.2075 25.6359C59.2075 25.2799 59.3415 24.9371 59.5824 24.6772C59.8233 24.4173 60.153 24.2598 60.5047 24.2365C63.8973 24.2365 66.7562 19.3282 66.7562 13.5149C66.7792 13.1596 66.9351 12.8264 67.1923 12.583C67.4495 12.3396 67.7887 12.2041 68.1411 12.2041C68.4935 12.2041 68.8327 12.3396 69.0899 12.583C69.3471 12.8264 69.503 13.1596 69.526 13.5149C69.526 21.0961 65.5758 27.0353 60.5047 27.0353Z" fill="black"/>
    <path d="M81.4358 27.0353C81.0842 27.012 80.7545 26.8545 80.5136 26.5946C80.2727 26.3347 80.1386 25.992 80.1386 25.6359C80.1386 25.2799 80.2727 24.9371 80.5136 24.6772C80.7545 24.4173 81.0842 24.2598 81.4358 24.2365C84.8285 24.2365 87.6873 19.3282 87.6873 13.5149C87.7103 13.1596 87.8663 12.8264 88.1235 12.583C88.3806 12.3396 88.7199 12.2041 89.0723 12.2041C89.4246 12.2041 89.7638 12.3396 90.021 12.583C90.2782 12.8264 90.4342 13.1596 90.4572 13.5149C90.4868 21.0961 86.4951 27.0353 81.4358 27.0353Z" fill="black"/>
    <path d="M102.349 27.035C101.998 27.0117 101.668 26.8542 101.427 26.5943C101.186 26.3344 101.052 25.9917 101.052 25.6356C101.052 25.2795 101.186 24.9368 101.427 24.6769C101.668 24.417 101.998 24.2595 102.349 24.2362C105.736 24.2362 108.601 19.3279 108.601 13.5146C108.601 13.1442 108.746 12.789 109.006 12.5272C109.265 12.2653 109.616 12.1182 109.983 12.1182C110.349 12.1182 110.701 12.2653 110.96 12.5272C111.219 12.789 111.365 13.1442 111.365 13.5146C111.383 21.0958 107.427 27.035 102.349 27.035Z" fill="black"/>
    <path d="M123.298 27.035C123.109 27.0475 122.919 27.0206 122.74 26.956C122.561 26.8913 122.397 26.7903 122.259 26.6591C122.12 26.528 122.01 26.3695 121.934 26.1934C121.859 26.0173 121.82 25.8275 121.82 25.6356C121.82 25.4437 121.859 25.2539 121.934 25.0778C122.01 24.9018 122.12 24.7433 122.259 24.6121C122.397 24.4809 122.561 24.3799 122.74 24.3152C122.919 24.2506 123.109 24.2237 123.298 24.2362C126.685 24.2362 129.55 19.3279 129.55 13.5146C129.55 13.1442 129.695 12.789 129.955 12.5272C130.214 12.2653 130.565 12.1182 130.932 12.1182C131.298 12.1182 131.65 12.2653 131.909 12.5272C132.168 12.789 132.314 13.1442 132.314 13.5146C132.314 21.0958 128.352 27.035 123.298 27.035Z" fill="black"/>
    <path d="M144.224 27.0353C143.872 27.012 143.542 26.8545 143.301 26.5946C143.06 26.3347 142.926 25.992 142.926 25.6359C142.926 25.2799 143.06 24.9371 143.301 24.6772C143.542 24.4173 143.872 24.2598 144.224 24.2365C147.616 24.2365 150.475 19.3282 150.475 13.5149C150.498 13.1596 150.654 12.8264 150.911 12.583C151.168 12.3396 151.508 12.2041 151.86 12.2041C152.212 12.2041 152.552 12.3396 152.809 12.583C153.066 12.8264 153.222 13.1596 153.245 13.5149C153.245 21.0961 149.283 27.0353 144.224 27.0353Z" fill="black"/>
    <path d="M165.155 27.0353C164.803 27.012 164.473 26.8545 164.232 26.5946C163.992 26.3347 163.858 25.992 163.858 25.6359C163.858 25.2799 163.992 24.9371 164.232 24.6772C164.473 24.4173 164.803 24.2598 165.155 24.2365C168.541 24.2365 171.406 19.3282 171.406 13.5149C171.429 13.1596 171.585 12.8264 171.842 12.583C172.1 12.3396 172.439 12.2041 172.791 12.2041C173.144 12.2041 173.483 12.3396 173.74 12.583C173.997 12.8264 174.153 13.1596 174.176 13.5149C174.176 21.0961 170.214 27.0353 165.155 27.0353Z" fill="black"/>
  </g>
  <path d="M47.3906 14.947H182.136C183.942 14.9836 185.674 15.685 187.005 16.9198C188.336 18.1545 189.175 19.8376 189.366 21.6533L196.827 106.654C196.918 107.506 196.828 108.369 196.565 109.184C196.301 110 195.869 110.749 195.297 111.383C194.725 112.017 194.026 112.521 193.247 112.862C192.468 113.203 191.626 113.372 190.777 113.36H56.0265C54.2206 113.321 52.4906 112.618 51.16 111.384C49.8293 110.15 48.9891 108.468 48.7963 106.654L41.3408 21.6533C41.2491 20.8002 41.3379 19.9372 41.6013 19.1214C41.8648 18.3057 42.2969 17.5558 42.869 16.9216C43.4411 16.2875 44.1401 15.7834 44.9197 15.443C45.6992 15.1026 46.5415 14.9335 47.3906 14.947Z" fill="#807ACC"/>
  <path opacity="0.4" d="M47.3906 14.947H182.136C183.942 14.9836 185.674 15.685 187.005 16.9198C188.336 18.1545 189.175 19.8376 189.366 21.6533L196.827 106.654C196.918 107.506 196.828 108.369 196.565 109.184C196.301 110 195.869 110.749 195.297 111.383C194.725 112.017 194.026 112.521 193.247 112.862C192.468 113.203 191.626 113.372 190.777 113.36H56.0265C54.2206 113.321 52.4906 112.618 51.16 111.384C49.8293 110.15 48.9891 108.468 48.7963 106.654L41.3408 21.6533C41.2491 20.8002 41.3379 19.9372 41.6013 19.1214C41.8648 18.3057 42.2969 17.5558 42.869 16.9216C43.4411 16.2875 44.1401 15.7834 44.9197 15.443C45.6992 15.1026 46.5415 14.9335 47.3906 14.947Z" fill="#FAFAFA"/>
  <path d="M181.015 14.9464H46.2637C44.4814 14.9678 42.7735 15.6722 41.4854 16.917C40.1972 18.1619 39.4248 19.8545 39.3242 21.6527L35.5282 106.653C35.483 107.519 35.6132 108.385 35.9109 109.198C36.2085 110.012 36.6674 110.755 37.2593 111.383C37.8513 112.011 38.5638 112.51 39.3533 112.85C40.1428 113.189 40.9927 113.363 41.8509 113.359H176.614C178.396 113.338 180.104 112.633 181.392 111.389C182.68 110.144 183.453 108.451 183.553 106.653L187.355 21.6527C187.399 20.7854 187.268 19.9182 186.969 19.104C186.67 18.2899 186.21 17.5461 185.616 16.9182C185.022 16.2902 184.308 15.7915 183.517 15.4524C182.725 15.1133 181.874 14.9412 181.015 14.9464Z" fill="#807ACC"/>
  <path opacity="0.2" d="M181.015 14.9464H46.2637C44.4814 14.9678 42.7735 15.6722 41.4854 16.917C40.1972 18.1619 39.4248 19.8545 39.3242 21.6527L35.5282 106.653C35.483 107.519 35.6132 108.385 35.9109 109.198C36.2085 110.012 36.6674 110.755 37.2593 111.383C37.8513 112.011 38.5638 112.51 39.3533 112.85C40.1428 113.189 40.9927 113.363 41.8509 113.359H176.614C178.396 113.338 180.104 112.633 181.392 111.389C182.68 110.144 183.453 108.451 183.553 106.653L187.355 21.6527C187.399 20.7854 187.268 19.9182 186.969 19.104C186.67 18.2899 186.21 17.5461 185.616 16.9182C185.022 16.2902 184.308 15.7915 183.517 15.4524C182.725 15.1133 181.874 14.9412 181.015 14.9464Z" fill="#FAFAFA"/>
  <path d="M48.7373 90.8971L51.8749 20.6999C51.9125 20.0113 52.2081 19.3629 52.7016 18.8865C53.1951 18.4101 53.8496 18.1414 54.5321 18.1348H172.462C172.791 18.1327 173.117 18.1985 173.419 18.3282C173.722 18.4578 173.995 18.6486 174.222 18.8888C174.45 19.129 174.626 19.4135 174.74 19.7249C174.855 20.0363 174.905 20.3681 174.888 20.6999L171.744 90.8971C171.707 91.5857 171.411 92.234 170.918 92.7104C170.424 93.1868 169.77 93.4556 169.087 93.4622H51.1631C50.8344 93.4642 50.5087 93.3984 50.206 93.2688C49.9033 93.1392 49.63 92.9484 49.4028 92.7082C49.1757 92.468 48.9995 92.1835 48.885 91.8721C48.7706 91.5607 48.7203 91.2289 48.7373 90.8971Z" fill="#807ACC"/>
  <path opacity="0.1" d="M48.7373 90.8971L51.8749 20.6999C51.9125 20.0113 52.2081 19.3629 52.7016 18.8865C53.1951 18.4101 53.8496 18.1414 54.5321 18.1348H172.462C172.791 18.1327 173.117 18.1985 173.419 18.3282C173.722 18.4578 173.995 18.6486 174.222 18.8888C174.45 19.129 174.626 19.4135 174.74 19.7249C174.855 20.0363 174.905 20.3681 174.888 20.6999L171.744 90.8971C171.707 91.5857 171.411 92.234 170.918 92.7104C170.424 93.1868 169.77 93.4556 169.087 93.4622H51.1631C50.8344 93.4642 50.5087 93.3984 50.206 93.2688C49.9033 93.1392 49.63 92.9484 49.4028 92.7082C49.1757 92.468 48.9995 92.1835 48.885 91.8721C48.7706 91.5607 48.7203 91.2289 48.7373 90.8971Z" fill="#FAFAFA"/>
  <path opacity="0.1" d="M45.4099 96.6269L48.7017 22.9117C48.7395 22.1887 49.0491 21.5075 49.5672 21.0074C50.0853 20.5073 50.7729 20.2259 51.4894 20.2208H175.333C175.678 20.2178 176.02 20.2863 176.338 20.4221C176.656 20.5578 176.943 20.7579 177.181 21.0101C177.42 21.2622 177.604 21.561 177.724 21.888C177.844 22.2151 177.896 22.5635 177.877 22.9117L174.58 96.6269C174.542 97.3495 174.233 98.0304 173.717 98.5314C173.2 99.0323 172.514 99.3157 171.798 99.3238H47.9425C47.5977 99.3261 47.256 99.2568 46.9387 99.1202C46.6213 98.9837 46.3351 98.7828 46.0977 98.53C45.8604 98.2772 45.6768 97.9779 45.5585 97.6505C45.4402 97.3232 45.3896 96.9748 45.4099 96.6269Z" fill="black"/>
  <path d="M42.3494 102.572L45.7836 25.68C45.8297 24.9281 46.1543 24.2214 46.6929 23.7005C47.2315 23.1797 47.9445 22.8829 48.6899 22.8692H177.877C178.238 22.8662 178.595 22.9379 178.927 23.0797C179.259 23.2216 179.559 23.4306 179.807 23.6939C180.056 23.9573 180.249 24.2694 180.374 24.6109C180.499 24.9525 180.554 25.3163 180.534 25.68L177.082 102.572C177.036 103.323 176.712 104.03 176.173 104.551C175.635 105.072 174.922 105.369 174.176 105.382H45.0066C44.6459 105.386 44.2883 105.315 43.9559 105.174C43.6236 105.032 43.3235 104.823 43.0744 104.56C42.8253 104.296 42.6324 103.984 42.5076 103.642C42.3829 103.3 42.3291 102.935 42.3494 102.572Z" fill="#FAFAFA"/>
  <path d="M165.137 27.4782C164.894 27.4786 164.654 27.4288 164.43 27.3317C164.207 27.2347 164.006 27.0926 163.839 26.914C163.673 26.7355 163.544 26.5243 163.461 26.2936C163.378 26.0628 163.343 25.8174 163.358 25.5723C163.38 25.0915 163.584 24.6376 163.927 24.3034C164.27 23.9692 164.726 23.78 165.202 23.7744C165.445 23.774 165.686 23.8238 165.909 23.9208C166.132 24.0178 166.333 24.16 166.5 24.3386C166.666 24.5171 166.795 24.7283 166.878 24.959C166.961 25.1898 166.996 25.4352 166.982 25.6802C166.959 26.161 166.755 26.615 166.412 26.9492C166.07 27.2834 165.613 27.4726 165.137 27.4782Z" fill="#807ACC"/>
  <path d="M144.206 27.4782C143.963 27.4786 143.722 27.4288 143.499 27.3317C143.276 27.2347 143.075 27.0926 142.908 26.914C142.742 26.7355 142.613 26.5243 142.53 26.2936C142.447 26.0628 142.412 25.8174 142.426 25.5723C142.449 25.0915 142.653 24.6376 142.995 24.3034C143.338 23.9692 143.795 23.78 144.271 23.7744C144.514 23.774 144.754 23.8238 144.977 23.9208C145.201 24.0178 145.402 24.16 145.568 24.3386C145.735 24.5171 145.864 24.7283 145.947 24.959C146.03 25.1898 146.065 25.4352 146.05 25.6802C146.029 26.1615 145.826 26.6163 145.483 26.9508C145.14 27.2853 144.683 27.474 144.206 27.4782Z" fill="#807ACC"/>
  <path d="M123.275 27.4782C123.032 27.4786 122.791 27.4288 122.568 27.3317C122.345 27.2347 122.144 27.0926 121.977 26.914C121.81 26.7355 121.682 26.5243 121.599 26.2936C121.516 26.0628 121.481 25.8174 121.495 25.5723C121.519 25.092 121.723 24.6389 122.066 24.305C122.408 23.9711 122.864 23.7814 123.34 23.7744C123.583 23.774 123.823 23.8238 124.046 23.9208C124.269 24.0178 124.471 24.16 124.637 24.3386C124.804 24.5171 124.933 24.7283 125.016 24.959C125.098 25.1898 125.134 25.4352 125.119 25.6802C125.098 26.1615 124.895 26.6163 124.552 26.9508C124.208 27.2853 123.751 27.474 123.275 27.4782Z" fill="#807ACC"/>
  <path d="M102.349 27.4782C102.106 27.4786 101.866 27.4288 101.643 27.3317C101.419 27.2347 101.218 27.0926 101.052 26.914C100.885 26.7355 100.756 26.5243 100.673 26.2936C100.59 26.0628 100.555 25.8174 100.57 25.5723C100.595 25.0915 100.801 24.6384 101.144 24.3046C101.488 23.9708 101.944 23.7813 102.42 23.7744C102.663 23.774 102.904 23.8238 103.127 23.9208C103.35 24.0178 103.551 24.16 103.718 24.3386C103.885 24.5171 104.013 24.7283 104.096 24.959C104.179 25.1898 104.214 25.4352 104.2 25.6802C104.178 26.1626 103.974 26.6182 103.63 26.9528C103.286 27.2875 102.827 27.4756 102.349 27.4782Z" fill="#807ACC"/>
  <path d="M81.418 27.4782C81.175 27.4786 80.9346 27.4288 80.7114 27.3317C80.4883 27.2347 80.2872 27.0926 80.1205 26.914C79.9538 26.7355 79.825 26.5243 79.7421 26.2936C79.6593 26.0628 79.624 25.8174 79.6386 25.5723C79.6613 25.0915 79.8648 24.6376 80.2077 24.3034C80.5506 23.9692 81.0069 23.78 81.4832 23.7744C81.7261 23.774 81.9666 23.8238 82.1897 23.9208C82.4129 24.0178 82.614 24.16 82.7807 24.3386C82.9474 24.5171 83.0762 24.7283 83.159 24.959C83.2419 25.1898 83.2772 25.4352 83.2626 25.6802C83.2399 26.161 83.0363 26.615 82.6935 26.9492C82.3506 27.2834 81.8943 27.4726 81.418 27.4782Z" fill="#807ACC"/>
  <path d="M60.4868 27.4782C60.2439 27.4786 60.0034 27.4288 59.7803 27.3317C59.5571 27.2347 59.356 27.0926 59.1893 26.914C59.0226 26.7355 58.8938 26.5243 58.811 26.2936C58.7281 26.0628 58.6929 25.8174 58.7074 25.5723C58.7301 25.0915 58.9337 24.6376 59.2765 24.3034C59.6194 23.9692 60.0757 23.78 60.552 23.7744C60.795 23.774 61.0354 23.8238 61.2586 23.9208C61.4817 24.0178 61.6828 24.16 61.8495 24.3386C62.0162 24.5171 62.145 24.7283 62.2279 24.959C62.3107 25.1898 62.346 25.4352 62.3314 25.6802C62.3102 26.1615 62.107 26.6163 61.7638 26.9508C61.4207 27.2853 60.9636 27.474 60.4868 27.4782Z" fill="#807ACC"/>
  <g opacity="0.1">
    <path d="M165.137 27.4782C164.894 27.4786 164.654 27.4288 164.43 27.3317C164.207 27.2347 164.006 27.0926 163.839 26.914C163.673 26.7355 163.544 26.5243 163.461 26.2936C163.378 26.0628 163.343 25.8174 163.358 25.5723C163.38 25.0915 163.584 24.6376 163.927 24.3034C164.27 23.9692 164.726 23.78 165.202 23.7744C165.445 23.774 165.686 23.8238 165.909 23.9208C166.132 24.0178 166.333 24.16 166.5 24.3386C166.666 24.5171 166.795 24.7283 166.878 24.959C166.961 25.1898 166.996 25.4352 166.982 25.6802C166.959 26.161 166.755 26.615 166.412 26.9492C166.07 27.2834 165.613 27.4726 165.137 27.4782Z" fill="#FAFAFA"/>
    <path d="M144.206 27.4782C143.963 27.4786 143.722 27.4288 143.499 27.3317C143.276 27.2347 143.075 27.0926 142.908 26.914C142.742 26.7355 142.613 26.5243 142.53 26.2936C142.447 26.0628 142.412 25.8174 142.426 25.5723C142.449 25.0915 142.653 24.6376 142.996 24.3034C143.338 23.9692 143.795 23.78 144.271 23.7744C144.514 23.774 144.754 23.8238 144.978 23.9208C145.201 24.0178 145.402 24.16 145.569 24.3386C145.735 24.5171 145.864 24.7283 145.947 24.959C146.03 25.1898 146.065 25.4352 146.05 25.6802C146.029 26.1615 145.826 26.6163 145.483 26.9508C145.14 27.2853 144.683 27.474 144.206 27.4782Z" fill="#FAFAFA"/>
    <path d="M123.275 27.4782C123.032 27.4786 122.791 27.4288 122.568 27.3317C122.345 27.2347 122.144 27.0926 121.977 26.914C121.811 26.7355 121.682 26.5243 121.599 26.2936C121.516 26.0628 121.481 25.8174 121.495 25.5723C121.52 25.092 121.724 24.6389 122.066 24.305C122.409 23.9711 122.864 23.7814 123.34 23.7744C123.583 23.774 123.823 23.8238 124.047 23.9208C124.27 24.0178 124.471 24.16 124.638 24.3386C124.804 24.5171 124.933 24.7283 125.016 24.959C125.099 25.1898 125.134 25.4352 125.119 25.6802C125.098 26.1615 124.895 26.6163 124.552 26.9508C124.209 27.2853 123.752 27.474 123.275 27.4782Z" fill="#FAFAFA"/>
    <path d="M102.349 27.4782C102.107 27.4786 101.866 27.4288 101.643 27.3317C101.42 27.2347 101.219 27.0926 101.052 26.914C100.885 26.7355 100.756 26.5243 100.674 26.2936C100.591 26.0628 100.556 25.8174 100.57 25.5723C100.596 25.0915 100.801 24.6384 101.144 24.3046C101.488 23.9708 101.944 23.7813 102.421 23.7744C102.664 23.774 102.904 23.8238 103.127 23.9208C103.35 24.0178 103.551 24.16 103.718 24.3386C103.885 24.5171 104.014 24.7283 104.096 24.959C104.179 25.1898 104.215 25.4352 104.2 25.6802C104.179 26.1626 103.975 26.6182 103.63 26.9528C103.286 27.2875 102.827 27.4756 102.349 27.4782Z" fill="#FAFAFA"/>
    <path d="M81.418 27.4782C81.1751 27.4786 80.9346 27.4288 80.7115 27.3317C80.4883 27.2347 80.2872 27.0926 80.1205 26.914C79.9538 26.7355 79.825 26.5243 79.7422 26.2936C79.6593 26.0628 79.6241 25.8174 79.6386 25.5723C79.6613 25.0915 79.8649 24.6376 80.2077 24.3034C80.5506 23.9692 81.0069 23.78 81.4832 23.7744C81.7262 23.774 81.9666 23.8238 82.1898 23.9208C82.4129 24.0178 82.614 24.16 82.7807 24.3386C82.9474 24.5171 83.0762 24.7283 83.1591 24.959C83.2419 25.1898 83.2772 25.4352 83.2626 25.6802C83.24 26.161 83.0364 26.615 82.6935 26.9492C82.3506 27.2834 81.8944 27.4726 81.418 27.4782Z" fill="#FAFAFA"/>
    <path d="M60.4868 27.4782C60.2439 27.4786 60.0034 27.4288 59.7803 27.3317C59.5571 27.2347 59.356 27.0926 59.1893 26.914C59.0226 26.7355 58.8938 26.5243 58.811 26.2936C58.7281 26.0628 58.6929 25.8174 58.7074 25.5723C58.7301 25.0915 58.9337 24.6376 59.2765 24.3034C59.6194 23.9692 60.0757 23.78 60.552 23.7744C60.795 23.774 61.0354 23.8238 61.2586 23.9208C61.4817 24.0178 61.6828 24.16 61.8495 24.3386C62.0162 24.5171 62.145 24.7283 62.2279 24.959C62.3107 25.1898 62.346 25.4352 62.3314 25.6802C62.3102 26.1615 62.107 26.6163 61.7638 26.9508C61.4207 27.2853 60.9636 27.474 60.4868 27.4782Z" fill="#FAFAFA"/>
  </g>
  <path d="M65.7181 34.1785H55.1902C55.0376 34.1798 54.8864 34.1491 54.7461 34.0882C54.6058 34.0274 54.4796 33.9378 54.3753 33.8252C54.2711 33.7125 54.1911 33.5792 54.1405 33.4337C54.0898 33.2882 54.0696 33.1337 54.0811 32.9799C54.0928 32.6658 54.2216 32.3678 54.4416 32.1455C54.6615 31.9233 54.9565 31.7932 55.2673 31.7813H65.7952C65.9479 31.78 66.0991 31.8108 66.2394 31.8716C66.3796 31.9324 66.5059 32.022 66.6101 32.1347C66.7144 32.2473 66.7943 32.3806 66.845 32.5261C66.8956 32.6716 66.9159 32.8261 66.9044 32.9799C66.8926 33.294 66.7639 33.592 66.5439 33.8143C66.3239 34.0366 66.029 34.1667 65.7181 34.1785Z" fill="#807ACC"/>
  <path d="M86.6493 34.1785H76.1214C75.9688 34.1798 75.8176 34.1491 75.6773 34.0882C75.537 34.0274 75.4108 33.9378 75.3065 33.8252C75.2023 33.7125 75.1223 33.5792 75.0717 33.4337C75.021 33.2882 75.0008 33.1337 75.0123 32.9799C75.0244 32.6608 75.1573 32.3585 75.3835 32.1355C75.6098 31.9124 75.9121 31.7857 76.2282 31.7813H86.7501C86.903 31.7801 87.0545 31.8108 87.195 31.8716C87.3356 31.9324 87.4622 32.0218 87.5669 32.1344C87.6716 32.2469 87.7521 32.3801 87.8035 32.5256C87.8548 32.6712 87.8758 32.8258 87.8652 32.9799C87.8531 33.299 87.7202 33.6013 87.4939 33.8244C87.2677 34.0474 86.9653 34.1742 86.6493 34.1785Z" fill="#807ACC"/>
  <path d="M107.58 34.1785H97.0525C96.8996 34.1797 96.7482 34.149 96.6076 34.0882C96.467 34.0275 96.3404 33.938 96.2357 33.8255C96.131 33.7129 96.0505 33.5797 95.9992 33.4342C95.9478 33.2887 95.9268 33.134 95.9374 32.9799C95.9496 32.6608 96.0825 32.3585 96.3087 32.1355C96.5349 31.9125 96.8373 31.7857 97.1533 31.7813H107.687C107.84 31.78 107.991 31.8108 108.131 31.8716C108.272 31.9324 108.398 32.022 108.502 32.1347C108.606 32.2473 108.686 32.3806 108.737 32.5261C108.788 32.6716 108.808 32.8261 108.796 32.9799C108.786 33.2995 108.653 33.6027 108.427 33.826C108.2 34.0493 107.897 34.1756 107.58 34.1785Z" fill="#807ACC"/>
  <path d="M128.506 34.1785H117.978C117.825 34.1798 117.674 34.1491 117.534 34.0882C117.394 34.0274 117.267 33.9378 117.163 33.8252C117.059 33.7125 116.979 33.5792 116.928 33.4337C116.878 33.2882 116.857 33.1337 116.869 32.9799C116.881 32.6658 117.009 32.3678 117.229 32.1455C117.449 31.9233 117.744 31.7932 118.055 31.7813H128.583C128.736 31.78 128.887 31.8108 129.027 31.8716C129.167 31.9324 129.294 32.022 129.398 32.1347C129.502 32.2473 129.582 32.3806 129.633 32.5261C129.683 32.6716 129.704 32.8261 129.692 32.9799C129.68 33.294 129.552 33.592 129.332 33.8143C129.112 34.0366 128.817 34.1667 128.506 34.1785Z" fill="#807ACC"/>
  <path d="M149.437 34.1785H138.909C138.757 34.1798 138.605 34.1491 138.465 34.0882C138.325 34.0274 138.198 33.9378 138.094 33.8252C137.99 33.7125 137.91 33.5792 137.859 33.4337C137.809 33.2882 137.789 33.1337 137.8 32.9799C137.812 32.6608 137.945 32.3585 138.171 32.1355C138.398 31.9125 138.7 31.7857 139.016 31.7813H149.544C149.696 31.78 149.848 31.8108 149.988 31.8716C150.128 31.9324 150.254 32.022 150.359 32.1347C150.463 32.2473 150.543 32.3806 150.594 32.5261C150.644 32.6716 150.664 32.8261 150.653 32.9799C150.641 33.2991 150.508 33.6013 150.282 33.8244C150.055 34.0474 149.753 34.1742 149.437 34.1785Z" fill="#807ACC"/>
  <path d="M170.368 34.1785H159.84C159.688 34.1798 159.536 34.1491 159.396 34.0882C159.256 34.0274 159.13 33.9378 159.025 33.8252C158.921 33.7125 158.841 33.5792 158.791 33.4337C158.74 33.2882 158.72 33.1337 158.731 32.9799C158.743 32.6608 158.876 32.3585 159.102 32.1355C159.329 31.9124 159.631 31.7857 159.947 31.7813H170.469C170.622 31.7801 170.773 31.8108 170.914 31.8716C171.055 31.9324 171.181 32.0218 171.286 32.1344C171.391 32.2469 171.471 32.3801 171.522 32.5256C171.574 32.6712 171.595 32.8258 171.584 32.9799C171.572 33.299 171.439 33.6013 171.213 33.8244C170.987 34.0474 170.684 34.1742 170.368 34.1785Z" fill="#807ACC"/>
  <g opacity="0.3">
    <path d="M65.7181 34.1785H55.1902C55.0376 34.1798 54.8864 34.1491 54.7461 34.0882C54.6058 34.0274 54.4796 33.9378 54.3753 33.8252C54.2711 33.7125 54.1911 33.5792 54.1405 33.4337C54.0898 33.2882 54.0696 33.1337 54.0811 32.9799C54.0928 32.6658 54.2216 32.3678 54.4416 32.1455C54.6615 31.9233 54.9565 31.7932 55.2673 31.7813H65.7952C65.9479 31.78 66.0991 31.8108 66.2394 31.8716C66.3796 31.9324 66.5059 32.022 66.6101 32.1347C66.7144 32.2473 66.7943 32.3806 66.845 32.5261C66.8956 32.6716 66.9159 32.8261 66.9044 32.9799C66.8926 33.294 66.7639 33.592 66.5439 33.8143C66.3239 34.0366 66.029 34.1667 65.7181 34.1785Z" fill="black"/>
    <path d="M86.6493 34.1785H76.1214C75.9688 34.1798 75.8176 34.1491 75.6773 34.0882C75.537 34.0274 75.4108 33.9378 75.3065 33.8252C75.2023 33.7125 75.1223 33.5792 75.0717 33.4337C75.021 33.2882 75.0008 33.1337 75.0123 32.9799C75.0244 32.6608 75.1573 32.3585 75.3835 32.1355C75.6098 31.9124 75.9121 31.7857 76.2282 31.7813H86.7501C86.903 31.7801 87.0545 31.8108 87.195 31.8716C87.3356 31.9324 87.4622 32.0218 87.5669 32.1344C87.6716 32.2469 87.7521 32.3801 87.8035 32.5256C87.8548 32.6712 87.8758 32.8258 87.8652 32.9799C87.8531 33.299 87.7202 33.6013 87.4939 33.8244C87.2677 34.0474 86.9653 34.1742 86.6493 34.1785Z" fill="black"/>
    <path d="M107.58 34.1785H97.0525C96.8996 34.1797 96.7482 34.149 96.6076 34.0882C96.467 34.0275 96.3404 33.938 96.2357 33.8255C96.131 33.7129 96.0505 33.5797 95.9992 33.4342C95.9478 33.2887 95.9268 33.134 95.9374 32.9799C95.9496 32.6608 96.0825 32.3585 96.3087 32.1355C96.5349 31.9125 96.8373 31.7857 97.1533 31.7813H107.687C107.84 31.78 107.991 31.8108 108.131 31.8716C108.272 31.9324 108.398 32.022 108.502 32.1347C108.606 32.2473 108.686 32.3806 108.737 32.5261C108.788 32.6716 108.808 32.8261 108.796 32.9799C108.786 33.2995 108.653 33.6027 108.427 33.826C108.2 34.0493 107.897 34.1756 107.58 34.1785Z" fill="black"/>
    <path d="M128.506 34.1785H117.978C117.825 34.1798 117.674 34.1491 117.534 34.0882C117.394 34.0274 117.267 33.9378 117.163 33.8252C117.059 33.7125 116.979 33.5792 116.928 33.4337C116.878 33.2882 116.857 33.1337 116.869 32.9799C116.881 32.6658 117.009 32.3678 117.229 32.1455C117.449 31.9233 117.744 31.7932 118.055 31.7813H128.583C128.736 31.78 128.887 31.8108 129.027 31.8716C129.167 31.9324 129.294 32.022 129.398 32.1347C129.502 32.2473 129.582 32.3806 129.633 32.5261C129.683 32.6716 129.704 32.8261 129.692 32.9799C129.68 33.294 129.552 33.592 129.332 33.8143C129.112 34.0366 128.817 34.1667 128.506 34.1785Z" fill="black"/>
    <path d="M149.437 34.1785H138.909C138.757 34.1798 138.605 34.1491 138.465 34.0882C138.325 34.0274 138.198 33.9378 138.094 33.8252C137.99 33.7125 137.91 33.5792 137.859 33.4337C137.809 33.2882 137.789 33.1337 137.8 32.9799C137.812 32.6608 137.945 32.3585 138.171 32.1355C138.398 31.9125 138.7 31.7857 139.016 31.7813H149.544C149.696 31.78 149.848 31.8108 149.988 31.8716C150.128 31.9324 150.254 32.022 150.359 32.1347C150.463 32.2473 150.543 32.3806 150.594 32.5261C150.644 32.6716 150.664 32.8261 150.653 32.9799C150.641 33.2991 150.508 33.6013 150.282 33.8244C150.055 34.0474 149.753 34.1742 149.437 34.1785Z" fill="black"/>
    <path d="M170.368 34.1785H159.84C159.688 34.1798 159.536 34.1491 159.396 34.0882C159.256 34.0274 159.13 33.9378 159.025 33.8252C158.921 33.7125 158.841 33.5792 158.791 33.4337C158.74 33.2882 158.72 33.1337 158.731 32.9799C158.743 32.6608 158.876 32.3585 159.102 32.1355C159.329 31.9124 159.631 31.7857 159.947 31.7813H170.469C170.622 31.7801 170.773 31.8108 170.914 31.8716C171.055 31.9324 171.181 32.0218 171.286 32.1344C171.391 32.2469 171.471 32.3801 171.522 32.5256C171.574 32.6712 171.595 32.8258 171.584 32.9799C171.572 33.299 171.439 33.6013 171.213 33.8244C170.987 34.0474 170.684 34.1742 170.368 34.1785Z" fill="black"/>
  </g>
  <path d="M66.2995 56.8144H52.5866C52.2859 56.8156 51.988 56.7549 51.7113 56.6358C51.4346 56.5168 51.1848 56.342 50.9771 56.1221C50.7695 55.9023 50.6085 55.6419 50.5038 55.357C50.3991 55.0721 50.353 54.7686 50.3684 54.4651L50.9615 40.6091C50.9974 39.9793 51.2684 39.3867 51.7196 38.9507C52.1709 38.5147 52.769 38.2678 53.3933 38.2598H67.1062C67.4069 38.2586 67.7048 38.3193 67.9815 38.4384C68.2583 38.5574 68.5081 38.7322 68.7157 38.9521C68.9233 39.172 69.0844 39.4323 69.189 39.7172C69.2937 40.0021 69.3398 40.3056 69.3245 40.6091L68.7313 54.4651C68.694 55.0944 68.4226 55.6863 67.9717 56.1219C67.5207 56.5576 66.9234 56.805 66.2995 56.8144Z" fill="#807ACC"/>
  <path d="M87.2308 56.8144H73.5179C73.2169 56.8165 72.9187 56.7563 72.6415 56.6376C72.3644 56.5189 72.1143 56.3441 71.9065 56.124C71.6987 55.904 71.5377 55.6433 71.4333 55.358C71.3289 55.0727 71.2835 54.7688 71.2996 54.4651L71.8928 40.6091C71.9287 39.9793 72.1997 39.3867 72.6509 38.9507C73.1022 38.5147 73.7003 38.2678 74.3246 38.2598H88.0553C88.3563 38.2586 88.6544 38.3194 88.9314 38.4383C89.2085 38.5573 89.4586 38.732 89.6667 38.9518C89.8748 39.1715 90.0364 39.4318 90.1418 39.7167C90.2471 40.0017 90.294 40.3053 90.2795 40.6091L89.6567 54.4651C89.6222 55.0944 89.3525 55.687 88.9022 56.1231C88.4519 56.5592 87.8545 56.8063 87.2308 56.8144Z" fill="#807ACC"/>
  <path d="M108.156 56.8145H94.4488C94.1478 56.8156 93.8497 56.7549 93.5727 56.6359C93.2956 56.5169 93.0455 56.3423 92.8374 56.1225C92.6293 55.9027 92.4677 55.6424 92.3623 55.3575C92.257 55.0726 92.2101 54.769 92.2246 54.4652L92.8177 40.6091C92.8537 39.9793 93.1246 39.3867 93.5759 38.9507C94.0272 38.5148 94.6252 38.2679 95.2495 38.2598H108.957C109.258 38.2577 109.556 38.3179 109.833 38.4366C110.11 38.5554 110.36 38.7301 110.568 38.9502C110.776 39.1703 110.937 39.431 111.041 39.7163C111.146 40.0016 111.191 40.3054 111.175 40.6091L110.582 54.4652C110.546 55.094 110.276 55.6857 109.826 56.1215C109.376 56.5574 108.779 56.8049 108.156 56.8145Z" fill="#807ACC"/>
  <path d="M129.087 56.8144H115.398C115.097 56.8165 114.798 56.7563 114.521 56.6376C114.243 56.519 113.993 56.3443 113.785 56.1243C113.576 55.9044 113.415 55.6437 113.31 55.3584C113.205 55.0731 113.158 54.7691 113.174 54.4651L113.767 40.6091C113.801 39.9798 114.071 39.3872 114.521 38.9511C114.972 38.515 115.569 38.2679 116.193 38.2598H129.906C130.206 38.2586 130.504 38.3193 130.781 38.4384C131.058 38.5574 131.308 38.7322 131.515 38.9521C131.723 39.172 131.884 39.4323 131.989 39.7172C132.093 40.0021 132.139 40.3056 132.124 40.6091L131.531 54.4651C131.495 55.097 131.222 55.6913 130.768 56.1276C130.315 56.5639 129.714 56.8094 129.087 56.8144Z" fill="#807ACC"/>
  <path d="M150.018 56.8145H136.305C136.005 56.8157 135.707 56.7549 135.43 56.6359C135.153 56.5168 134.903 56.3421 134.696 56.1222C134.488 55.9023 134.327 55.642 134.222 55.357C134.118 55.0721 134.072 54.7687 134.087 54.4652L134.68 40.6091C134.716 39.9793 134.987 39.3867 135.438 38.9507C135.89 38.5148 136.488 38.2679 137.112 38.2598H150.819C151.12 38.2578 151.419 38.318 151.696 38.4366C151.974 38.5553 152.224 38.7299 152.432 38.9499C152.641 39.1699 152.802 39.4305 152.907 39.7158C153.012 40.0011 153.058 40.3051 153.043 40.6091L152.45 54.4652C152.413 55.0945 152.141 55.6863 151.69 56.122C151.239 56.5577 150.642 56.805 150.018 56.8145Z" fill="#807ACC"/>
  <path d="M170.944 56.8144H157.237C156.936 56.8165 156.637 56.7563 156.36 56.6376C156.083 56.5189 155.833 56.3441 155.625 56.124C155.417 55.904 155.256 55.6433 155.152 55.358C155.048 55.0727 155.002 54.7688 155.018 54.4651L155.611 40.6091C155.647 39.9793 155.918 39.3867 156.37 38.9507C156.821 38.5147 157.419 38.2678 158.043 38.2598H171.75C172.051 38.2586 172.349 38.3194 172.626 38.4383C172.903 38.5573 173.154 38.732 173.362 38.9518C173.57 39.1715 173.731 39.4318 173.837 39.7167C173.942 40.0017 173.989 40.3053 173.974 40.6091L173.352 54.4651C173.317 55.0914 173.05 55.6814 172.604 56.1171C172.157 56.5527 171.564 56.8018 170.944 56.8144Z" fill="#807ACC"/>
  <g opacity="0.8">
    <path d="M66.2995 56.8144H52.5866C52.2859 56.8156 51.988 56.7549 51.7113 56.6358C51.4346 56.5168 51.1848 56.342 50.9771 56.1221C50.7695 55.9023 50.6085 55.6419 50.5038 55.357C50.3991 55.0721 50.353 54.7686 50.3684 54.4651L50.9615 40.6091C50.9974 39.9793 51.2684 39.3867 51.7196 38.9507C52.1709 38.5147 52.769 38.2678 53.3933 38.2598H67.1062C67.4069 38.2586 67.7048 38.3193 67.9815 38.4384C68.2583 38.5574 68.5081 38.7322 68.7157 38.9521C68.9233 39.172 69.0844 39.4323 69.189 39.7172C69.2937 40.0021 69.3398 40.3056 69.3245 40.6091L68.7313 54.4651C68.694 55.0944 68.4226 55.6863 67.9717 56.1219C67.5207 56.5576 66.9234 56.805 66.2995 56.8144Z" fill="#FAFAFA"/>
    <path d="M87.2305 56.8144H73.5176C73.2166 56.8165 72.9183 56.7563 72.6412 56.6376C72.3641 56.5189 72.1139 56.3441 71.9061 56.124C71.6983 55.904 71.5373 55.6433 71.433 55.358C71.3286 55.0727 71.2831 54.7688 71.2993 54.4651L71.8924 40.6091C71.9284 39.9793 72.1993 39.3867 72.6506 38.9507C73.1019 38.5147 73.6999 38.2678 74.3242 38.2598H88.0549C88.356 38.2586 88.6541 38.3194 88.9311 38.4383C89.2081 38.5573 89.4583 38.732 89.6664 38.9518C89.8745 39.1715 90.0361 39.4318 90.1414 39.7167C90.2468 40.0017 90.2936 40.3053 90.2791 40.6091L89.6564 54.4651C89.6219 55.0944 89.3522 55.687 88.9019 56.1231C88.4516 56.5592 87.8542 56.8063 87.2305 56.8144Z" fill="#FAFAFA"/>
    <path d="M108.156 56.8145H94.4488C94.1477 56.8156 93.8496 56.7549 93.5726 56.6359C93.2956 56.5169 93.0454 56.3423 92.8373 56.1225C92.6293 55.9027 92.4676 55.6424 92.3623 55.3575C92.2569 55.0726 92.2101 54.769 92.2246 54.4652L92.8177 40.6091C92.8536 39.9793 93.1246 39.3867 93.5758 38.9507C94.0271 38.5148 94.6252 38.2679 95.2495 38.2598H108.956C109.257 38.2577 109.556 38.3179 109.833 38.4366C110.11 38.5554 110.36 38.7301 110.568 38.9502C110.776 39.1703 110.937 39.431 111.041 39.7163C111.145 40.0016 111.191 40.3054 111.175 40.6091L110.582 54.4652C110.546 55.094 110.276 55.6857 109.826 56.1215C109.376 56.5574 108.779 56.8049 108.156 56.8145Z" fill="#FAFAFA"/>
    <path d="M129.087 56.8144H115.398C115.097 56.8165 114.798 56.7563 114.521 56.6376C114.243 56.519 113.993 56.3443 113.784 56.1243C113.576 55.9044 113.415 55.6437 113.31 55.3584C113.205 55.0731 113.158 54.7691 113.174 54.4651L113.767 40.6091C113.801 39.9798 114.071 39.3872 114.521 38.9511C114.972 38.515 115.569 38.2679 116.193 38.2598H129.906C130.206 38.2586 130.504 38.3193 130.781 38.4384C131.058 38.5574 131.307 38.7322 131.515 38.9521C131.723 39.172 131.884 39.4323 131.988 39.7172C132.093 40.0021 132.139 40.3056 132.124 40.6091L131.531 54.4651C131.495 55.097 131.222 55.6913 130.768 56.1276C130.314 56.5639 129.713 56.8094 129.087 56.8144Z" fill="#FAFAFA"/>
    <path d="M150.018 56.8145H136.305C136.004 56.8157 135.707 56.7549 135.43 56.6359C135.153 56.5168 134.903 56.3421 134.696 56.1222C134.488 55.9023 134.327 55.642 134.222 55.357C134.118 55.0721 134.072 54.7687 134.087 54.4652L134.68 40.6091C134.716 39.9793 134.987 39.3867 135.438 38.9507C135.89 38.5148 136.488 38.2679 137.112 38.2598H150.819C151.12 38.2578 151.419 38.318 151.696 38.4366C151.973 38.5553 152.224 38.7299 152.432 38.9499C152.641 39.1699 152.802 39.4305 152.907 39.7158C153.012 40.0011 153.058 40.3051 153.043 40.6091L152.45 54.4652C152.413 55.0945 152.141 55.6863 151.69 56.122C151.239 56.5577 150.642 56.805 150.018 56.8145Z" fill="#FAFAFA"/>
    <path d="M170.943 56.8144H157.236C156.935 56.8165 156.637 56.7563 156.36 56.6376C156.083 56.5189 155.833 56.3441 155.625 56.124C155.417 55.904 155.256 55.6433 155.152 55.358C155.048 55.0727 155.002 54.7688 155.018 54.4651L155.611 40.6091C155.647 39.9793 155.918 39.3867 156.37 38.9507C156.821 38.5147 157.419 38.2678 158.043 38.2598H171.75C172.051 38.2586 172.349 38.3194 172.626 38.4383C172.903 38.5573 173.153 38.732 173.362 38.9518C173.57 39.1715 173.731 39.4318 173.837 39.7167C173.942 40.0017 173.989 40.3053 173.974 40.6091L173.352 54.4651C173.317 55.0914 173.05 55.6814 172.604 56.1171C172.157 56.5527 171.564 56.8018 170.943 56.8144Z" fill="#FAFAFA"/>
  </g>
  <path d="M65.3389 78.3125H51.626C51.3252 78.3137 51.0274 78.2529 50.7506 78.1339C50.4739 78.0149 50.2241 77.8401 50.0165 77.6202C49.8089 77.4003 49.6478 77.14 49.5431 76.8551C49.4384 76.5702 49.3924 76.2667 49.4077 75.9632L50.0008 62.1071C50.0381 61.4778 50.3095 60.886 50.7605 60.4503C51.2115 60.0146 51.8087 59.7673 52.4326 59.7578H66.1693C66.47 59.7566 66.7679 59.8174 67.0446 59.9364C67.3213 60.0554 67.5711 60.2302 67.7787 60.4501C67.9864 60.67 68.1474 60.9303 68.2521 61.2152C68.3568 61.5001 68.4028 61.8036 68.3875 62.1071L67.7944 75.9632C67.7568 76.5966 67.4821 77.1918 67.0261 77.6281C66.5701 78.0644 65.9669 78.3091 65.3389 78.3125Z" fill="#807ACC"/>
  <path d="M86.2698 78.3115H72.5569C72.2561 78.3128 71.9583 78.252 71.6816 78.1329C71.4048 78.0139 71.155 77.8391 70.9474 77.6193C70.7398 77.3994 70.5787 77.139 70.4741 76.8541C70.3694 76.5692 70.3233 76.2657 70.3386 75.9622L70.9317 62.1062C70.9677 61.4764 71.2386 60.8838 71.6899 60.4478C72.1412 60.0118 72.7392 59.7649 73.3635 59.7569H87.0705C87.3742 59.7547 87.675 59.8156 87.9544 59.9356C88.2338 60.0557 88.4858 60.2324 88.6949 60.4549C88.904 60.6774 89.0656 60.9409 89.1698 61.229C89.274 61.5172 89.3185 61.8239 89.3007 62.1302L88.7075 75.9622C88.6729 76.5936 88.4016 77.1879 87.9487 77.6243C87.4959 78.0607 86.8956 78.3064 86.2698 78.3115Z" fill="#807ACC"/>
  <path d="M107.195 78.3115H93.4882C93.1872 78.3136 92.8889 78.2534 92.6118 78.1347C92.3347 78.016 92.0845 77.8412 91.8767 77.6211C91.669 77.4011 91.5079 77.1404 91.4036 76.8551C91.2992 76.5698 91.2537 76.2659 91.2699 75.9622L91.863 62.1062C91.899 61.4764 92.1699 60.8838 92.6212 60.4478C93.0725 60.0118 93.6705 59.7649 94.2948 59.7569H108.002C108.303 59.7548 108.601 59.815 108.878 59.9337C109.155 60.0524 109.405 60.2272 109.613 60.4473C109.821 60.6673 109.982 60.928 110.086 61.2133C110.191 61.4986 110.236 61.8025 110.22 62.1062L109.627 75.9622C109.591 76.592 109.32 77.1847 108.869 77.6206C108.418 78.0566 107.819 78.3035 107.195 78.3115Z" fill="#807ACC"/>
  <path d="M128.126 78.3119H114.419C114.118 78.313 113.82 78.2523 113.543 78.1333C113.266 78.0143 113.016 77.8397 112.808 77.6199C112.6 77.4001 112.438 77.1398 112.333 76.8549C112.228 76.57 112.181 76.2664 112.195 75.9625L112.788 62.1065C112.823 61.4772 113.092 60.8846 113.543 60.4485C113.993 60.0124 114.59 59.7653 115.214 59.7572H128.927C129.232 59.7516 129.536 59.81 129.817 59.9287C130.099 60.0473 130.354 60.2237 130.565 60.4466C130.776 60.6696 130.94 60.9343 131.044 61.2241C131.149 61.5138 131.194 61.8225 131.175 62.1305L130.582 75.9865C130.54 76.6162 130.263 77.2063 129.807 77.6378C129.352 78.0694 128.751 78.3103 128.126 78.3119Z" fill="#807ACC"/>
  <path d="M149.058 78.312H135.345C135.044 78.3133 134.746 78.2525 134.469 78.1335C134.193 78.0144 133.943 77.8396 133.735 77.6198C133.528 77.3999 133.366 77.1395 133.262 76.8546C133.157 76.5697 133.111 76.2662 133.126 75.9627L133.719 62.1067C133.751 61.4721 134.021 60.8735 134.474 60.4326C134.926 59.9918 135.528 59.7418 136.157 59.7334H149.87C150.171 59.7322 150.469 59.793 150.745 59.912C151.022 60.031 151.272 60.2058 151.48 60.4257C151.687 60.6456 151.848 60.9059 151.953 61.1908C152.058 61.4757 152.104 61.7792 152.088 62.0827L151.495 75.9388C151.464 76.5734 151.194 77.172 150.741 77.6128C150.288 78.0537 149.686 78.3037 149.058 78.312Z" fill="#807ACC"/>
  <path d="M169.965 78.3125H156.276C155.975 78.3146 155.677 78.2544 155.4 78.1356C155.122 78.0169 154.872 77.8421 154.664 77.6221C154.457 77.402 154.296 77.1413 154.191 76.856C154.087 76.5707 154.041 76.2669 154.058 75.9632L154.651 62.1071C154.687 61.4773 154.958 60.8847 155.409 60.4487C155.86 60.0128 156.458 59.7659 157.083 59.7578H170.79C171.091 59.7567 171.389 59.8174 171.666 59.9364C171.943 60.0553 172.193 60.23 172.401 60.4498C172.609 60.6696 172.771 60.9299 172.876 61.2148C172.981 61.4997 173.028 61.8033 173.014 62.1071L172.391 75.9632C172.356 76.5925 172.087 77.185 171.636 77.6211C171.186 78.0572 170.589 78.3043 169.965 78.3125Z" fill="#807ACC"/>
  <g opacity="0.8">
    <path d="M65.3388 78.3125H51.6259C51.3251 78.3137 51.0273 78.2529 50.7505 78.1339C50.4738 78.0149 50.224 77.8401 50.0164 77.6202C49.8088 77.4003 49.6477 77.14 49.543 76.8551C49.4384 76.5702 49.3923 76.2667 49.4076 75.9632L50.0007 62.1071C50.0381 61.4778 50.3094 60.886 50.7604 60.4503C51.2114 60.0146 51.8086 59.7673 52.4325 59.7578H66.1692C66.4699 59.7566 66.7678 59.8174 67.0445 59.9364C67.3212 60.0554 67.571 60.2302 67.7786 60.4501C67.9863 60.67 68.1473 60.9303 68.252 61.2152C68.3567 61.5001 68.4028 61.8036 68.3874 62.1071L67.7943 75.9632C67.7567 76.5966 67.482 77.1918 67.026 77.6281C66.57 78.0644 65.9668 78.3091 65.3388 78.3125Z" fill="#FAFAFA"/>
    <path d="M86.2698 78.3125H72.5568C72.2561 78.3137 71.9582 78.253 71.6815 78.1339C71.4048 78.0149 71.155 77.8401 70.9474 77.6202C70.7397 77.4004 70.5787 77.14 70.474 76.8551C70.3693 76.5702 70.3232 76.2667 70.3386 75.9632L70.9317 62.1072C70.9677 61.4773 71.2386 60.8847 71.6899 60.4488C72.1411 60.0128 72.7392 59.7659 73.3635 59.7579H87.0705C87.3741 59.7557 87.6749 59.8165 87.9543 59.9366C88.2337 60.0567 88.4858 60.2334 88.6948 60.4559C88.9039 60.6784 89.0655 60.9418 89.1697 61.23C89.2739 61.5182 89.3185 61.8249 89.3006 62.1311L88.7075 75.9632C88.6728 76.5945 88.4015 77.1888 87.9487 77.6252C87.4958 78.0616 86.8955 78.3074 86.2698 78.3125Z" fill="#FAFAFA"/>
    <path d="M107.195 78.3125H93.4881C93.1871 78.3146 92.8888 78.2544 92.6117 78.1357C92.3346 78.0169 92.0844 77.8422 91.8766 77.6221C91.6688 77.402 91.5078 77.1414 91.4034 76.8561C91.2991 76.5708 91.2536 76.2669 91.2698 75.9632L91.8629 62.1072C91.8989 61.4773 92.1698 60.8847 92.6211 60.4488C93.0723 60.0128 93.6704 59.7659 94.2947 59.7579H108.002C108.303 59.7558 108.601 59.816 108.878 59.9347C109.155 60.0534 109.405 60.2282 109.613 60.4483C109.821 60.6683 109.982 60.929 110.086 61.2143C110.191 61.4996 110.236 61.8034 110.22 62.1072L109.627 75.9632C109.591 76.593 109.32 77.1857 108.869 77.6216C108.417 78.0576 107.819 78.3045 107.195 78.3125Z" fill="#FAFAFA"/>
    <path d="M128.126 78.3119H114.419C114.118 78.313 113.82 78.2523 113.543 78.1333C113.266 78.0143 113.016 77.8397 112.808 77.6199C112.6 77.4001 112.438 77.1398 112.333 76.8549C112.227 76.57 112.181 76.2664 112.195 75.9625L112.788 62.1065C112.823 61.4772 113.092 60.8846 113.543 60.4485C113.993 60.0124 114.59 59.7653 115.214 59.7572H128.927C129.232 59.7516 129.536 59.81 129.817 59.9287C130.099 60.0473 130.354 60.2237 130.565 60.4466C130.776 60.6696 130.939 60.9343 131.044 61.2241C131.149 61.5138 131.194 61.8225 131.175 62.1305L130.582 75.9865C130.54 76.6162 130.263 77.2063 129.807 77.6378C129.352 78.0694 128.751 78.3103 128.126 78.3119Z" fill="#FAFAFA"/>
    <path d="M149.057 78.312H135.345C135.044 78.3133 134.746 78.2525 134.469 78.1335C134.192 78.0144 133.943 77.8396 133.735 77.6198C133.527 77.3999 133.366 77.1395 133.262 76.8546C133.157 76.5697 133.111 76.2662 133.126 75.9627L133.719 62.1067C133.751 61.4721 134.021 60.8735 134.473 60.4326C134.926 59.9918 135.528 59.7418 136.157 59.7334H149.87C150.171 59.7322 150.469 59.793 150.745 59.912C151.022 60.031 151.272 60.2058 151.48 60.4257C151.687 60.6456 151.848 60.9059 151.953 61.1908C152.058 61.4757 152.104 61.7792 152.088 62.0827L151.495 75.9388C151.464 76.5734 151.194 77.172 150.741 77.6128C150.288 78.0537 149.686 78.3037 149.057 78.312Z" fill="#FAFAFA"/>
    <path d="M169.965 78.3125H156.276C155.975 78.3146 155.677 78.2544 155.399 78.1356C155.122 78.0169 154.872 77.8421 154.664 77.6221C154.457 77.402 154.296 77.1413 154.191 76.856C154.087 76.5707 154.041 76.2669 154.058 75.9632L154.651 62.1071C154.687 61.4773 154.958 60.8847 155.409 60.4487C155.86 60.0128 156.458 59.7659 157.082 59.7578H170.789C171.091 59.7567 171.389 59.8174 171.666 59.9364C171.943 60.0553 172.193 60.23 172.401 60.4498C172.609 60.6696 172.771 60.9299 172.876 61.2148C172.981 61.4997 173.028 61.8033 173.014 62.1071L172.391 75.9632C172.356 76.5925 172.087 77.185 171.636 77.6211C171.186 78.0572 170.589 78.3043 169.965 78.3125Z" fill="#FAFAFA"/>
  </g>
  <path d="M64.3894 99.8036H50.6646C50.3636 99.8057 50.0654 99.7455 49.7883 99.6268C49.5111 99.508 49.261 99.3333 49.0532 99.1132C48.8454 98.8931 48.6844 98.6324 48.58 98.3471C48.4757 98.0619 48.4302 97.758 48.4464 97.4543L49.0395 83.6042C49.0755 82.9744 49.3464 82.3818 49.7977 81.9458C50.2489 81.5099 50.847 81.263 51.4713 81.2549H65.1842C65.4852 81.2529 65.7835 81.313 66.0606 81.4318C66.3377 81.5505 66.5879 81.7253 66.7957 81.9453C67.0034 82.1654 67.1645 82.4261 67.2688 82.7114C67.3732 82.9967 67.4187 83.3005 67.4025 83.6042L66.8094 97.4543C66.7749 98.0826 66.5061 98.6743 66.057 99.1102C65.608 99.5462 65.0121 99.7939 64.3894 99.8036Z" fill="#807ACC"/>
  <path d="M85.3088 99.8036H71.5958C71.2948 99.8057 70.9966 99.7455 70.7194 99.6268C70.4423 99.5081 70.1922 99.3333 69.9844 99.1132C69.7766 98.8932 69.6156 98.6325 69.5112 98.3472C69.4068 98.0619 69.3614 97.7581 69.3776 97.4544L69.9707 83.6043C70.0053 82.974 70.2758 82.3805 70.7273 81.9443C71.1789 81.508 71.7777 81.2616 72.4025 81.255H86.1095C86.411 81.2521 86.7099 81.3116 86.9877 81.43C87.2655 81.5484 87.5164 81.723 87.7248 81.9432C87.9332 82.1633 88.0948 82.4243 88.1995 82.71C88.3042 82.9957 88.3499 83.3001 88.3337 83.6043L87.7405 97.4544C87.7073 98.0852 87.4373 98.6794 86.9854 99.116C86.5335 99.5525 85.9339 99.7984 85.3088 99.8036Z" fill="#807ACC"/>
  <path d="M106.234 99.8036H92.5273C92.2262 99.8057 91.928 99.7455 91.6509 99.6268C91.3737 99.508 91.1236 99.3333 90.9158 99.1132C90.708 98.8931 90.547 98.6324 90.4426 98.3471C90.3383 98.0618 90.2928 97.758 90.309 97.4543L90.9021 83.6042C90.9367 82.9739 91.2072 82.3805 91.6588 81.9442C92.1103 81.508 92.7092 81.2616 93.3339 81.2549H107.094C107.396 81.2529 107.694 81.3131 107.971 81.4317C108.249 81.5504 108.499 81.7251 108.708 81.945C108.916 82.165 109.078 82.4256 109.183 82.7109C109.288 82.9962 109.334 83.3002 109.318 83.6042L108.696 97.4543C108.661 98.0897 108.386 98.6875 107.928 99.1245C107.47 99.5615 106.864 99.8046 106.234 99.8036Z" fill="#807ACC"/>
  <path d="M127.165 99.8036H113.458C113.157 99.8056 112.859 99.7455 112.581 99.6268C112.304 99.5081 112.053 99.3335 111.845 99.1135C111.637 98.8935 111.475 98.6329 111.37 98.3476C111.265 98.0623 111.219 97.7583 111.234 97.4543L111.827 83.6042C111.861 82.9744 112.13 82.3811 112.58 81.9447C113.031 81.5083 113.629 81.2617 114.253 81.2549H127.966C128.267 81.2529 128.565 81.313 128.843 81.4318C129.12 81.5505 129.37 81.7253 129.578 81.9453C129.785 82.1654 129.946 82.4261 130.051 82.7114C130.155 82.9967 130.201 83.3005 130.184 83.6042L129.591 97.4543C129.557 98.0836 129.287 98.6762 128.837 99.1123C128.387 99.5484 127.789 99.7954 127.165 99.8036Z" fill="#807ACC"/>
  <path d="M148.097 99.8036H134.378C134.077 99.8057 133.779 99.7455 133.501 99.6268C133.224 99.508 132.974 99.3333 132.766 99.1132C132.559 98.8931 132.398 98.6324 132.293 98.3471C132.189 98.0619 132.143 97.758 132.16 97.4543L132.753 83.6042C132.789 82.9744 133.06 82.3818 133.511 81.9458C133.962 81.5099 134.56 81.263 135.184 81.2549H148.897C149.198 81.2529 149.497 81.313 149.774 81.4318C150.051 81.5505 150.301 81.7253 150.509 81.9453C150.717 82.1654 150.878 82.4261 150.982 82.7114C151.086 82.9967 151.132 83.3005 151.116 83.6042L150.522 97.4543C150.487 98.0831 150.216 98.6749 149.766 99.1107C149.316 99.5465 148.72 99.794 148.097 99.8036Z" fill="#807ACC"/>
  <path d="M169.028 99.8036H155.315C155.014 99.8057 154.715 99.7455 154.438 99.6268C154.161 99.508 153.911 99.3333 153.703 99.1132C153.495 98.8931 153.334 98.6324 153.23 98.3471C153.126 98.0618 153.08 97.758 153.096 97.4543L153.69 83.6042C153.724 82.9739 153.995 82.3805 154.446 81.9442C154.898 81.508 155.497 81.2616 156.121 81.2549H169.828C170.13 81.2529 170.428 81.3131 170.706 81.4317C170.983 81.5504 171.233 81.7251 171.442 81.945C171.65 82.165 171.812 82.4256 171.917 82.7109C172.022 82.9962 172.068 83.3002 172.053 83.6042L171.43 97.4543C171.397 98.08 171.131 98.67 170.685 99.1058C170.24 99.5415 169.648 99.7908 169.028 99.8036Z" fill="#807ACC"/>
  <g opacity="0.8">
    <path d="M64.3894 99.8036H50.6646C50.3636 99.8057 50.0654 99.7455 49.7883 99.6268C49.5111 99.508 49.261 99.3333 49.0532 99.1132C48.8454 98.8931 48.6844 98.6324 48.58 98.3471C48.4757 98.0619 48.4302 97.758 48.4464 97.4543L49.0395 83.6042C49.0755 82.9744 49.3464 82.3818 49.7977 81.9458C50.2489 81.5099 50.847 81.263 51.4713 81.2549H65.1842C65.4852 81.2529 65.7835 81.313 66.0606 81.4318C66.3377 81.5505 66.5879 81.7253 66.7957 81.9453C67.0034 82.1654 67.1645 82.4261 67.2688 82.7114C67.3732 82.9967 67.4187 83.3005 67.4025 83.6042L66.8094 97.4543C66.7749 98.0826 66.5061 98.6743 66.057 99.1102C65.608 99.5462 65.0121 99.7939 64.3894 99.8036Z" fill="#FAFAFA"/>
    <path d="M85.3087 99.8036H71.5958C71.2948 99.8057 70.9965 99.7455 70.7194 99.6268C70.4423 99.5081 70.1921 99.3333 69.9843 99.1132C69.7766 98.8932 69.6155 98.6325 69.5112 98.3472C69.4068 98.0619 69.3613 97.7581 69.3775 97.4544L69.9706 83.6043C70.0052 82.974 70.2757 82.3805 70.7273 81.9443C71.1789 81.508 71.7777 81.2616 72.4024 81.255H86.1094C86.4109 81.2521 86.7098 81.3116 86.9876 81.43C87.2655 81.5484 87.5164 81.723 87.7248 81.9432C87.9332 82.1633 88.0948 82.4243 88.1995 82.71C88.3042 82.9957 88.3499 83.3001 88.3336 83.6043L87.7405 97.4544C87.7073 98.0852 87.4372 98.6794 86.9854 99.116C86.5335 99.5525 85.9339 99.7984 85.3087 99.8036Z" fill="#FAFAFA"/>
    <path d="M106.234 99.8036H92.5272C92.2262 99.8057 91.9279 99.7455 91.6508 99.6268C91.3737 99.508 91.1235 99.3333 90.9157 99.1132C90.708 98.8931 90.5469 98.6324 90.4426 98.3471C90.3382 98.0618 90.2927 97.758 90.3089 97.4543L90.902 83.6042C90.9366 82.9739 91.2071 82.3805 91.6587 81.9442C92.1103 81.508 92.7091 81.2616 93.3338 81.2549H107.094C107.395 81.2529 107.694 81.3131 107.971 81.4317C108.249 81.5504 108.499 81.7251 108.708 81.945C108.916 82.165 109.077 82.4256 109.182 82.7109C109.288 82.9962 109.334 83.3002 109.318 83.6042L108.696 97.4543C108.661 98.0897 108.386 98.6875 107.928 99.1245C107.47 99.5615 106.864 99.8046 106.234 99.8036Z" fill="#FAFAFA"/>
    <path d="M127.165 99.8036H113.458C113.157 99.8056 112.858 99.7455 112.581 99.6268C112.304 99.5081 112.053 99.3335 111.845 99.1135C111.637 98.8935 111.475 98.6329 111.37 98.3476C111.265 98.0623 111.219 97.7583 111.234 97.4543L111.827 83.6042C111.86 82.9744 112.129 82.3811 112.58 81.9447C113.031 81.5083 113.629 81.2617 114.253 81.2549H127.966C128.267 81.2529 128.565 81.313 128.842 81.4318C129.119 81.5505 129.37 81.7253 129.577 81.9453C129.785 82.1654 129.946 82.4261 130.051 82.7114C130.155 82.9967 130.2 83.3005 130.184 83.6042L129.591 97.4543C129.557 98.0836 129.287 98.6762 128.837 99.1123C128.386 99.5484 127.789 99.7954 127.165 99.8036Z" fill="#FAFAFA"/>
    <path d="M148.097 99.8036H134.378C134.077 99.8057 133.778 99.7455 133.501 99.6268C133.224 99.508 132.974 99.3333 132.766 99.1132C132.558 98.8931 132.397 98.6324 132.293 98.3471C132.189 98.0619 132.143 97.758 132.159 97.4543L132.753 83.6042C132.789 82.9744 133.059 82.3818 133.511 81.9458C133.962 81.5099 134.56 81.263 135.184 81.2549H148.897C149.198 81.2529 149.497 81.313 149.774 81.4318C150.051 81.5505 150.301 81.7253 150.509 81.9453C150.717 82.1654 150.878 82.4261 150.982 82.7114C151.086 82.9967 151.132 83.3005 151.116 83.6042L150.522 97.4543C150.487 98.0831 150.216 98.6749 149.766 99.1107C149.316 99.5465 148.72 99.794 148.097 99.8036Z" fill="#FAFAFA"/>
    <path d="M169.028 99.8036H155.315C155.014 99.8057 154.715 99.7455 154.438 99.6268C154.161 99.508 153.911 99.3333 153.703 99.1132C153.495 98.8931 153.334 98.6324 153.23 98.3471C153.126 98.0618 153.08 97.758 153.096 97.4543L153.69 83.6042C153.724 82.9739 153.995 82.3805 154.446 81.9442C154.898 81.508 155.497 81.2616 156.121 81.2549H169.828C170.13 81.2529 170.428 81.3131 170.706 81.4317C170.983 81.5504 171.233 81.7251 171.442 81.945C171.65 82.165 171.812 82.4256 171.917 82.7109C172.022 82.9962 172.068 83.3002 172.053 83.6042L171.43 97.4543C171.397 98.08 171.131 98.67 170.685 99.1058C170.24 99.5415 169.648 99.7908 169.028 99.8036Z" fill="#FAFAFA"/>
  </g>
  <path d="M60.5047 27.0349C55.4513 27.0349 51.4893 21.0957 51.4893 13.5145C51.4893 5.93318 55.4513 0 60.5047 0C65.5581 0 69.526 5.93917 69.526 13.5145C69.503 13.8698 69.3471 14.2029 69.0899 14.4463C68.8327 14.6898 68.4935 14.8252 68.1411 14.8252C67.7887 14.8252 67.4495 14.6898 67.1923 14.4463C66.9351 14.2029 66.7792 13.8698 66.7562 13.5145C66.7562 7.70714 63.8973 2.79279 60.5047 2.79279C57.112 2.79279 54.2532 7.70714 54.2532 13.5145C54.2532 19.3218 57.118 24.2361 60.5047 24.2361C60.6942 24.2236 60.8842 24.2505 61.063 24.3151C61.2418 24.3798 61.4056 24.4808 61.5441 24.612C61.6827 24.7432 61.7932 24.9017 61.8688 25.0777C61.9443 25.2538 61.9833 25.4436 61.9833 25.6355C61.9833 25.8274 61.9443 26.0172 61.8688 26.1933C61.7932 26.3694 61.6827 26.5279 61.5441 26.659C61.4056 26.7902 61.2418 26.8912 61.063 26.9559C60.8842 27.0205 60.6942 27.0474 60.5047 27.0349Z" fill="#807ACC"/>
  <path d="M81.4359 27.0349C76.3825 27.0349 72.4204 21.0957 72.4204 13.5145C72.4204 5.93318 76.3825 0 81.4359 0C86.4892 0 90.4869 5.93917 90.4869 13.5145C90.4638 13.8698 90.3079 14.2029 90.0507 14.4463C89.7935 14.6898 89.4543 14.8252 89.1019 14.8252C88.7495 14.8252 88.4103 14.6898 88.1531 14.4463C87.896 14.2029 87.74 13.8698 87.717 13.5145C87.717 7.70714 84.8582 2.79279 81.4655 2.79279C78.0729 2.79279 75.214 7.70714 75.214 13.5145C75.214 19.3218 78.0788 24.2361 81.4655 24.2361C81.8172 24.2594 82.1469 24.4169 82.3878 24.6768C82.6287 24.9367 82.7627 25.2794 82.7627 25.6355C82.7627 25.9916 82.6287 26.3343 82.3878 26.5942C82.1469 26.8541 81.8172 27.0116 81.4655 27.0349H81.4359Z" fill="#807ACC"/>
  <path d="M102.349 27.0349C97.29 27.0349 93.3279 21.0957 93.3279 13.5145C93.3279 5.93318 97.29 0 102.349 0C107.409 0 111.365 5.93917 111.365 13.5145C111.365 13.8848 111.219 14.24 110.96 14.5019C110.701 14.7637 110.349 14.9109 109.983 14.9109C109.616 14.9109 109.265 14.7637 109.006 14.5019C108.746 14.24 108.601 13.8848 108.601 13.5145C108.601 7.70714 105.736 2.79279 102.349 2.79279C98.9626 2.79279 96.0978 7.70714 96.0978 13.5145C96.0978 19.3218 98.9626 24.2361 102.349 24.2361C102.701 24.2594 103.031 24.4169 103.272 24.6768C103.512 24.9367 103.647 25.2794 103.647 25.6355C103.647 25.9916 103.512 26.3343 103.272 26.5942C103.031 26.8541 102.701 27.0116 102.349 27.0349Z" fill="#807ACC"/>
  <path d="M123.298 27.0349C118.239 27.0349 114.277 21.0957 114.277 13.5145C114.277 5.93318 118.239 0 123.298 0C128.357 0 132.314 5.93917 132.314 13.5145C132.314 13.8848 132.168 14.24 131.909 14.5019C131.65 14.7637 131.298 14.9109 130.932 14.9109C130.565 14.9109 130.214 14.7637 129.954 14.5019C129.695 14.24 129.55 13.8848 129.55 13.5145C129.55 7.70714 126.685 2.79279 123.298 2.79279C119.911 2.79279 117.047 7.70714 117.047 13.5145C117.047 19.3218 119.905 24.2361 123.298 24.2361C123.65 24.2594 123.979 24.4169 124.22 24.6768C124.461 24.9367 124.595 25.2794 124.595 25.6355C124.595 25.9916 124.461 26.3343 124.22 26.5942C123.979 26.8541 123.65 27.0116 123.298 27.0349Z" fill="#807ACC"/>
  <path d="M144.224 27.0349C139.17 27.0349 135.208 21.0957 135.208 13.5145C135.208 5.93318 139.17 0 144.224 0C149.277 0 153.245 5.93917 153.245 13.5145C153.222 13.8698 153.066 14.2029 152.809 14.4463C152.552 14.6898 152.212 14.8252 151.86 14.8252C151.508 14.8252 151.168 14.6898 150.911 14.4463C150.654 14.2029 150.498 13.8698 150.475 13.5145C150.475 7.70714 147.616 2.79279 144.224 2.79279C140.831 2.79279 137.972 7.70714 137.972 13.5145C137.972 19.3218 140.837 24.2361 144.224 24.2361C144.413 24.2236 144.603 24.2505 144.782 24.3151C144.961 24.3798 145.124 24.4808 145.263 24.612C145.402 24.7432 145.512 24.9017 145.588 25.0777C145.663 25.2538 145.702 25.4436 145.702 25.6355C145.702 25.8274 145.663 26.0172 145.588 26.1933C145.512 26.3694 145.402 26.5279 145.263 26.659C145.124 26.7902 144.961 26.8912 144.782 26.9559C144.603 27.0205 144.413 27.0474 144.224 27.0349Z" fill="#807ACC"/>
  <path d="M165.155 27.0349C160.101 27.0349 156.139 21.0957 156.139 13.5145C156.139 5.93318 160.101 0 165.155 0C170.208 0 174.176 5.93917 174.176 13.5145C174.153 13.8698 173.997 14.2029 173.74 14.4463C173.483 14.6898 173.144 14.8252 172.791 14.8252C172.439 14.8252 172.1 14.6898 171.842 14.4463C171.585 14.2029 171.429 13.8698 171.406 13.5145C171.406 7.70714 168.541 2.79279 165.155 2.79279C161.768 2.79279 158.903 7.70714 158.903 13.5145C158.903 19.3218 161.768 24.2361 165.155 24.2361C165.506 24.2594 165.836 24.4169 166.077 24.6768C166.318 24.9367 166.452 25.2794 166.452 25.6355C166.452 25.9916 166.318 26.3343 166.077 26.5942C165.836 26.8541 165.506 27.0116 165.155 27.0349Z" fill="#807ACC"/>
  <g opacity="0.3">
    <path d="M60.5047 27.0349C55.4513 27.0349 51.4893 21.0957 51.4893 13.5145C51.4893 5.93318 55.4513 0 60.5047 0C65.5581 0 69.526 5.93917 69.526 13.5145C69.503 13.8698 69.3471 14.2029 69.0899 14.4463C68.8327 14.6898 68.4935 14.8252 68.1411 14.8252C67.7887 14.8252 67.4495 14.6898 67.1923 14.4463C66.9351 14.2029 66.7792 13.8698 66.7562 13.5145C66.7562 7.70714 63.8973 2.79279 60.5047 2.79279C57.112 2.79279 54.2532 7.70714 54.2532 13.5145C54.2532 19.3218 57.118 24.2361 60.5047 24.2361C60.6942 24.2236 60.8842 24.2505 61.063 24.3151C61.2418 24.3798 61.4056 24.4808 61.5441 24.612C61.6827 24.7432 61.7932 24.9017 61.8688 25.0777C61.9443 25.2538 61.9833 25.4436 61.9833 25.6355C61.9833 25.8274 61.9443 26.0172 61.8688 26.1933C61.7932 26.3694 61.6827 26.5279 61.5441 26.659C61.4056 26.7902 61.2418 26.8912 61.063 26.9559C60.8842 27.0205 60.6942 27.0474 60.5047 27.0349Z" fill="black"/>
    <path d="M81.4358 27.0349C76.3824 27.0349 72.4203 21.0957 72.4203 13.5145C72.4203 5.93318 76.3824 0 81.4358 0C86.4892 0 90.4868 5.93917 90.4868 13.5145C90.4638 13.8698 90.3078 14.2029 90.0506 14.4463C89.7934 14.6898 89.4542 14.8252 89.1018 14.8252C88.7494 14.8252 88.4102 14.6898 88.1531 14.4463C87.8959 14.2029 87.7399 13.8698 87.7169 13.5145C87.7169 7.70714 84.8581 2.79279 81.4654 2.79279C78.0728 2.79279 75.2139 7.70714 75.2139 13.5145C75.2139 19.3218 78.0787 24.2361 81.4654 24.2361C81.8171 24.2594 82.1468 24.4169 82.3877 24.6768C82.6286 24.9367 82.7626 25.2794 82.7626 25.6355C82.7626 25.9916 82.6286 26.3343 82.3877 26.5942C82.1468 26.8541 81.8171 27.0116 81.4654 27.0349H81.4358Z" fill="black"/>
    <path d="M102.349 27.0349C97.2899 27.0349 93.3279 21.0957 93.3279 13.5145C93.3279 5.93318 97.2899 0 102.349 0C107.409 0 111.365 5.93917 111.365 13.5145C111.365 13.8848 111.219 14.24 110.96 14.5019C110.701 14.7637 110.349 14.9109 109.983 14.9109C109.616 14.9109 109.265 14.7637 109.005 14.5019C108.746 14.24 108.601 13.8848 108.601 13.5145C108.601 7.70714 105.736 2.79279 102.349 2.79279C98.9625 2.79279 96.0978 7.70714 96.0978 13.5145C96.0978 19.3218 98.9625 24.2361 102.349 24.2361C102.701 24.2594 103.031 24.4169 103.272 24.6768C103.512 24.9367 103.646 25.2794 103.646 25.6355C103.646 25.9916 103.512 26.3343 103.272 26.5942C103.031 26.8541 102.701 27.0116 102.349 27.0349Z" fill="black"/>
    <path d="M123.298 27.0349C118.239 27.0349 114.277 21.0957 114.277 13.5145C114.277 5.93318 118.239 0 123.298 0C128.357 0 132.313 5.93917 132.313 13.5145C132.313 13.8848 132.168 14.24 131.909 14.5019C131.65 14.7637 131.298 14.9109 130.931 14.9109C130.565 14.9109 130.213 14.7637 129.954 14.5019C129.695 14.24 129.55 13.8848 129.55 13.5145C129.55 7.70714 126.685 2.79279 123.298 2.79279C119.911 2.79279 117.047 7.70714 117.047 13.5145C117.047 19.3218 119.905 24.2361 123.298 24.2361C123.65 24.2594 123.979 24.4169 124.22 24.6768C124.461 24.9367 124.595 25.2794 124.595 25.6355C124.595 25.9916 124.461 26.3343 124.22 26.5942C123.979 26.8541 123.65 27.0116 123.298 27.0349Z" fill="black"/>
    <path d="M144.223 27.0349C139.17 27.0349 135.208 21.0957 135.208 13.5145C135.208 5.93318 139.17 0 144.223 0C149.277 0 153.245 5.93917 153.245 13.5145C153.222 13.8698 153.066 14.2029 152.809 14.4463C152.552 14.6898 152.212 14.8252 151.86 14.8252C151.508 14.8252 151.168 14.6898 150.911 14.4463C150.654 14.2029 150.498 13.8698 150.475 13.5145C150.475 7.70714 147.616 2.79279 144.223 2.79279C140.831 2.79279 137.972 7.70714 137.972 13.5145C137.972 19.3218 140.837 24.2361 144.223 24.2361C144.413 24.2236 144.603 24.2505 144.782 24.3151C144.961 24.3798 145.124 24.4808 145.263 24.612C145.402 24.7432 145.512 24.9017 145.588 25.0777C145.663 25.2538 145.702 25.4436 145.702 25.6355C145.702 25.8274 145.663 26.0172 145.588 26.1933C145.512 26.3694 145.402 26.5279 145.263 26.659C145.124 26.7902 144.961 26.8912 144.782 26.9559C144.603 27.0205 144.413 27.0474 144.223 27.0349Z" fill="black"/>
    <path d="M165.155 27.0349C160.101 27.0349 156.139 21.0957 156.139 13.5145C156.139 5.93318 160.101 0 165.155 0C170.208 0 174.176 5.93917 174.176 13.5145C174.153 13.8698 173.997 14.2029 173.74 14.4463C173.483 14.6898 173.144 14.8252 172.791 14.8252C172.439 14.8252 172.1 14.6898 171.842 14.4463C171.585 14.2029 171.429 13.8698 171.406 13.5145C171.406 7.70714 168.541 2.79279 165.155 2.79279C161.768 2.79279 158.903 7.70714 158.903 13.5145C158.903 19.3218 161.768 24.2361 165.155 24.2361C165.506 24.2594 165.836 24.4169 166.077 24.6768C166.318 24.9367 166.452 25.2794 166.452 25.6355C166.452 25.9916 166.318 26.3343 166.077 26.5942C165.836 26.8541 165.506 27.0116 165.155 27.0349Z" fill="black"/>
  </g>
</svg>
